 <svg  version="1.0" xmlns="http://www.w3.org/2000/svg"  width="900.000000pt" height="963.000000pt" viewBox="0 0 900.000000 963.000000"  preserveAspectRatio="xMidYMid meet">  <g transform="translate(0.000000,963.000000) scale(0.100000,-0.100000)" fill="#000000" stroke="none"> <path d="M4513 9618 c2 -14 -67 -25 -168 -27 -72 -2 -230 -33 -265 -53 -14 -7 -45 -26 -69 -42 -70 -45 -129 -46 -231 -3 -175 74 -301 96 -438 77 -53 -7 -102 -16 -108 -21 -7 -6 -8 -28 -3 -66 8 -57 -1 -93 -22 -93 -6 0 -33 11 -61 25 -49 25 -142 34 -182 19 -22 -8 -20 -36 4 -67 11 -14 20 -36 20 -50 0 -23 -6 -26 -77 -42 -75 -16 -157 -48 -168 -64 -9 -16 -95 -33 -128 -27 -19 4 -54 21 -78 39 -75 57 -170 71 -254 37 -29 -11 -29 -12 -10 -26 41 -29 84 -77 79 -86 -4 -6 -42 -7 -95 -2 -107 8 -120 -4 -70 -61 58 -67 37 -98 -56 -83 -77 11 -116 -5 -138 -58 -21 -51 -19 -76 10 -118 l25 -37 -28 -9 c-15 -6 -38 -16 -51 -23 -37 -18 -123 -106 -116 -117 3 -5 28 -10 55 -10 26 0 55 -3 64 -6 21 -8 20 -38 -1 -55 -9 -8 -43 -50 -76 -94 -77 -104 -91 -114 -129 -92 -54 31 -57 27 -51 -78 7 -113 -4 -122 -56 -46 -18 27 -44 60 -57 72 l-24 22 0 -54 c1 -92 28 -181 71 -238 11 -13 19 -31 19 -41 0 -28 -87 -134 -247 -302 -207 -215 -273 -316 -273 -411 1 -29 7 -63 14 -77 12 -22 12 -29 -2 -54 -16 -27 -112 -106 -129 -106 -4 0 -39 -21 -78 -46 -89 -58 -164 -137 -233 -244 -58 -90 -118 -160 -138 -160 -6 0 -29 -19 -51 -43 -40 -43 -52 -69 -93 -202 -29 -95 -41 -111 -87 -117 -57 -8 -145 -54 -189 -99 -32 -32 -35 -39 -20 -45 9 -3 45 1 81 10 73 18 177 21 206 6 48 -26 -5 -95 -131 -169 -92 -54 -110 -69 -110 -93 0 -34 72 -58 180 -58 118 0 199 -20 269 -67 113 -74 167 -177 108 -204 -23 -11 -41 -9 -179 21 -49 11 -64 10 -114 -6 -65 -20 -126 -69 -150 -120 -15 -32 -15 -35 8 -66 54 -77 88 -180 88 -273 0 -115 -53 -137 -151 -65 -30 23 -56 45 -57 51 -5 12 -118 99 -130 99 -5 0 -16 -8 -25 -18 -20 -22 -23 -144 -6 -219 34 -146 42 -171 89 -261 27 -53 21 -72 -22 -72 -49 0 -63 -13 -62 -58 2 -50 50 -123 124 -186 113 -97 169 -114 400 -120 369 -11 563 -51 590 -121 14 -37 2 -79 -32 -114 -39 -40 -94 -42 -157 -6 -52 30 -76 33 -66 8 4 -10 10 -27 13 -38 9 -33 68 -128 94 -152 79 -73 182 -89 323 -50 121 33 253 51 306 43 70 -11 105 -56 80 -104 -5 -9 -19 -38 -31 -64 -11 -25 -43 -66 -69 -91 -27 -25 -46 -48 -43 -51 3 -3 105 -6 227 -6 237 0 335 -13 402 -53 41 -24 44 -61 8 -103 -51 -58 -85 -118 -85 -148 0 -75 89 -143 166 -126 21 4 89 10 149 14 180 9 215 -10 158 -82 -41 -53 -64 -111 -66 -168 l-2 -49 40 -3 c98 -6 284 -36 321 -53 47 -19 74 -52 74 -87 0 -41 -31 -93 -72 -119 -21 -14 -38 -30 -38 -35 0 -11 42 -27 100 -38 145 -28 350 -108 445 -174 32 -22 143 -114 160 -132 11 -12 75 -59 120 -89 60 -40 136 -71 230 -95 59 -15 60 -16 66 -55 8 -51 32 -96 72 -137 36 -35 165 -98 203 -98 14 0 44 -5 68 -11 24 -6 55 -9 70 -7 l28 3 -40 30 c-22 17 -48 42 -56 57 -15 24 -15 28 0 43 29 29 62 35 187 35 170 0 276 -35 437 -144 86 -59 271 -238 320 -311 19 -27 42 -56 52 -63 99 -72 196 -270 294 -602 9 -30 22 -71 29 -90 7 -19 18 -51 25 -70 6 -19 14 -44 17 -55 7 -32 78 -130 97 -133 25 -5 42 13 70 74 29 62 58 79 121 68 107 -18 186 -90 275 -250 57 -104 123 -183 182 -220 73 -46 117 -20 64 37 -70 76 -73 152 -6 207 56 47 53 47 125 -10 36 -29 72 -53 78 -53 17 0 12 31 -17 108 -14 37 -26 88 -26 112 0 47 30 136 59 174 l18 24 48 -34 c141 -101 171 -107 117 -22 -58 91 -78 173 -66 275 4 37 12 62 21 65 8 3 42 -6 76 -21 65 -27 107 -33 107 -15 0 6 -19 34 -42 63 -59 72 -114 188 -125 264 -7 43 11 42 62 -3 45 -39 73 -50 110 -41 68 17 25 132 -105 286 -104 123 -160 213 -160 259 0 25 5 32 28 37 54 12 82 27 82 44 0 10 -16 40 -35 66 -55 78 -143 227 -170 288 -42 94 -15 109 96 51 126 -65 152 -39 74 72 -25 35 -45 66 -45 69 0 3 -9 17 -20 32 -10 15 -22 39 -26 54 -9 39 14 37 78 -7 55 -38 83 -48 119 -43 34 4 30 23 -11 50 -19 13 -43 39 -52 58 -23 48 -55 155 -63 213 -9 61 6 62 65 2 41 -42 80 -59 80 -35 0 10 -40 120 -66 178 -8 20 -14 66 -14 116 0 45 -7 105 -15 131 -10 36 -11 52 -3 62 8 10 61 13 227 13 298 1 372 12 504 80 58 29 110 49 116 45 7 -3 23 -24 36 -45 43 -68 123 -146 177 -172 29 -14 90 -33 135 -42 72 -14 87 -15 135 -2 73 21 141 46 153 57 5 5 15 9 21 9 21 0 133 71 185 117 86 78 102 113 135 302 15 87 9 172 -18 276 -6 22 -14 56 -19 75 -18 81 -62 187 -134 320 -36 66 -68 139 -123 275 -9 22 -25 54 -36 70 -25 37 -122 132 -205 202 -34 29 -87 85 -118 125 -45 59 -118 147 -188 224 -5 6 -72 75 -147 152 -76 77 -138 145 -138 152 0 21 31 22 96 4 70 -20 79 -27 123 -90 58 -83 154 -81 336 7 180 87 346 236 516 464 137 183 177 264 245 495 9 30 23 71 30 90 23 62 28 103 25 205 -3 92 -1 103 21 135 13 19 27 43 31 53 3 9 13 17 22 17 13 0 15 22 15 146 0 89 -4 143 -10 139 -5 -3 -25 20 -45 51 -20 31 -66 89 -103 129 -37 40 -80 91 -97 112 -49 66 -191 162 -238 163 -10 0 -48 8 -85 17 -73 18 -130 49 -235 128 -56 43 -123 81 -240 137 -43 21 -195 71 -229 75 -50 7 -65 27 -83 114 -30 139 -33 154 -49 196 -24 65 -48 98 -101 141 -127 102 -235 262 -235 348 0 50 -39 183 -68 230 -45 72 -101 118 -211 173 -35 17 -67 31 -72 31 -5 0 -48 19 -96 41 -49 23 -99 45 -113 50 -111 35 -287 119 -375 179 -38 26 -84 54 -101 63 -57 29 -182 70 -269 88 -22 4 -60 12 -85 17 -71 16 -221 32 -390 42 -251 15 -423 37 -436 55 -10 13 -48 15 -268 15 -198 0 -255 -3 -253 -12z m832 -163 c231 -18 395 -40 480 -65 34 -10 108 -42 165 -72 58 -30 159 -76 225 -102 66 -26 129 -51 140 -56 63 -26 123 -53 140 -62 11 -6 33 -15 50 -19 49 -12 107 -36 199 -79 48 -22 90 -40 95 -40 5 0 37 -21 72 -47 144 -105 213 -195 193 -250 -8 -24 -16 -28 -51 -31 -24 -2 -55 4 -72 12 -42 22 -56 20 -92 -15 -29 -29 -36 -31 -83 -27 -28 3 -103 25 -166 50 -187 74 -271 101 -283 89 -7 -7 -2 -13 16 -20 40 -16 164 -148 206 -221 72 -125 86 -181 96 -370 7 -122 19 -165 67 -237 15 -23 28 -51 28 -64 0 -19 -4 -21 -32 -15 -42 8 -185 98 -248 156 -55 51 -80 95 -80 140 0 36 -23 40 -72 11 -17 -11 -35 -18 -40 -15 -4 3 -8 46 -8 95 0 101 -7 111 -59 85 -16 -9 -44 -16 -60 -16 -33 0 -38 9 -43 80 -2 28 -8 36 -26 38 -13 2 -33 -4 -43 -14 -24 -22 -50 -10 -61 27 -42 150 -56 174 -93 165 -21 -5 -23 -1 -29 42 -18 136 -59 257 -87 257 -7 0 -19 -24 -28 -52 -8 -29 -21 -55 -28 -57 -19 -8 -42 4 -48 24 -9 30 -108 126 -151 148 -22 11 -74 25 -115 31 -42 6 -83 13 -92 17 -20 7 -23 -10 -4 -26 6 -6 28 -19 47 -28 37 -18 69 -69 70 -111 0 -20 -4 -23 -27 -18 -122 26 -340 34 -336 12 1 -5 21 -15 45 -22 59 -15 118 -41 118 -52 0 -16 -33 -18 -150 -10 -111 8 -241 0 -340 -21 -25 -5 -64 -9 -87 -10 -50 0 -54 -10 -16 -36 22 -14 53 -18 153 -21 153 -4 336 -28 368 -49 18 -12 22 -23 20 -46 -4 -38 -39 -52 -108 -43 l-45 6 20 -20 c12 -13 54 -29 105 -42 103 -25 143 -44 181 -87 49 -55 38 -67 -87 -96 -107 -25 -144 -41 -214 -91 -50 -37 -133 -80 -230 -120 -115 -48 -232 -107 -342 -173 -119 -71 -152 -76 -141 -21 3 16 2 29 -2 29 -4 0 -52 -23 -107 -50 -104 -53 -137 -57 -139 -17 -3 56 -5 62 -20 61 -52 -4 -248 -173 -307 -263 -39 -61 -102 -197 -102 -222 0 -8 -27 -61 -60 -117 -33 -55 -60 -106 -60 -111 0 -10 -145 -298 -171 -339 -7 -12 -18 -21 -23 -19 -5 2 -17 34 -28 72 -20 74 -19 155 3 295 18 117 61 314 86 393 5 15 1 17 -21 11 -23 -5 -26 -3 -26 20 0 14 7 54 16 89 40 160 47 184 59 217 52 144 54 173 10 144 -33 -22 -79 -15 -83 13 -4 29 31 95 77 146 80 89 93 129 40 125 -45 -4 -46 15 -3 54 21 18 63 60 93 93 63 67 136 141 199 199 30 28 42 46 42 67 0 15 -4 30 -9 34 -5 3 -49 0 -98 -6 -155 -19 -200 -22 -207 -11 -9 14 66 88 134 133 102 67 168 98 322 149 109 36 128 46 128 70 0 10 -14 32 -30 49 l-30 30 43 29 c76 53 90 118 30 134 -26 7 -33 14 -33 32 0 56 53 68 300 68 113 -1 268 2 345 7 233 13 439 12 650 -4z m-2094 -472 c12 -12 4 -15 -59 -28 -25 -5 -40 -18 -62 -53 -16 -26 -25 -48 -20 -50 5 -2 41 1 79 7 71 11 101 7 101 -13 0 -22 -17 -37 -79 -69 -35 -18 -63 -37 -64 -42 0 -6 24 -13 54 -18 80 -11 122 -35 135 -77 9 -27 18 -36 40 -40 38 -7 41 -29 10 -82 -43 -74 -58 -111 -66 -173 -5 -33 -16 -80 -25 -105 -9 -25 -16 -58 -17 -75 0 -16 -11 -63 -24 -103 -20 -60 -24 -93 -24 -196 0 -87 -4 -134 -15 -159 -23 -55 -19 -85 15 -114 29 -24 30 -28 30 -109 0 -47 -6 -113 -14 -147 -8 -34 -22 -109 -32 -167 -23 -133 -46 -190 -78 -190 -18 0 -26 7 -31 28 -7 26 -8 26 -17 5 -7 -15 -5 -44 6 -101 20 -99 20 -120 0 -201 -20 -80 -29 -92 -45 -58 -7 15 -16 24 -20 21 -14 -8 -11 -69 8 -165 16 -84 16 -92 -1 -166 -19 -79 -50 -153 -64 -153 -4 0 -13 5 -19 11 -29 29 -68 -143 -79 -351 -5 -107 -27 -231 -49 -285 -6 -16 -18 -45 -25 -64 -8 -19 -29 -54 -47 -78 -18 -24 -33 -47 -33 -52 0 -5 -7 -14 -15 -21 -8 -7 -15 -21 -15 -31 0 -11 -27 -41 -63 -71 -35 -29 -101 -86 -146 -126 -98 -87 -151 -113 -247 -119 -81 -6 -158 15 -266 73 -84 45 -133 68 -193 91 l-50 18 4 44 c2 39 -1 48 -35 82 -21 22 -42 39 -46 39 -4 0 -8 -48 -8 -107 0 -100 -2 -110 -31 -162 -35 -62 -86 -121 -106 -121 -19 0 -16 12 12 61 29 51 31 84 10 153 -8 27 -15 73 -15 102 0 80 -29 133 -46 82 -3 -12 -27 -43 -52 -70 -75 -80 -89 -64 -68 86 15 101 9 146 -17 146 -7 0 -31 -13 -53 -30 -52 -39 -65 -39 -57 3 3 17 10 41 16 52 14 26 12 162 -2 198 -16 42 -14 158 5 202 25 61 2 63 -39 3 -71 -108 -120 -126 -70 -27 18 38 28 77 33 134 12 127 2 130 -77 26 -26 -36 -54 -66 -60 -69 -17 -5 -17 33 1 61 7 12 35 76 61 142 26 66 53 134 61 151 25 57 27 106 5 149 -12 21 -21 47 -21 57 0 13 -8 18 -25 18 -14 0 -25 2 -25 4 0 2 18 34 40 70 22 36 40 70 40 76 0 16 39 130 55 160 7 14 33 48 57 76 69 81 103 124 110 144 6 16 3 18 -26 13 -61 -10 -58 4 37 156 42 67 43 98 4 86 -56 -17 -62 -13 -60 37 1 34 10 63 32 98 17 28 31 54 31 59 0 5 3 11 8 13 4 2 32 35 61 73 115 148 271 277 442 367 76 40 143 107 126 124 -4 4 -32 2 -64 -5 -58 -11 -78 -5 -68 20 7 15 114 101 188 150 33 22 47 38 47 53 0 32 -33 58 -66 54 -15 -2 -29 2 -31 8 -4 12 75 82 177 159 97 72 140 116 140 142 0 18 -6 23 -24 23 -104 0 68 132 239 185 83 25 196 48 280 56 117 10 383 5 396 -8z m2415 -484 c4 -6 12 -32 18 -57 9 -33 18 -48 33 -52 21 -5 73 -70 73 -91 0 -21 62 -70 81 -64 31 10 40 -3 24 -34 -15 -29 -6 -51 22 -51 18 0 16 -10 -4 -33 -13 -15 -15 -21 -5 -24 23 -8 12 -29 -27 -53 -33 -21 -42 -33 -50 -71 -6 -25 -8 -54 -5 -65 3 -12 -1 -26 -10 -33 -13 -11 -22 -11 -50 3 -19 9 -41 16 -50 16 -33 0 -88 -30 -139 -78 -80 -74 -129 -97 -253 -122 -64 -13 -80 -11 -154 19 -82 33 -174 61 -223 67 -52 7 -161 -7 -244 -33 -50 -15 -54 -15 -73 2 -11 10 -20 26 -20 37 0 18 7 22 77 48 18 7 56 30 85 52 34 24 60 37 72 34 19 -5 179 93 334 204 43 30 93 62 112 71 56 27 147 42 255 43 60 1 100 5 100 11 -1 29 -20 83 -36 104 -25 31 -24 51 1 51 18 0 20 7 20 55 0 41 4 55 14 55 8 0 18 -5 22 -11z m1109 -37 c24 -20 125 -153 178 -232 75 -116 97 -129 292 -184 120 -34 168 -74 170 -140 0 -44 128 -108 365 -186 111 -36 183 -66 221 -91 48 -32 200 -109 214 -109 15 0 174 -82 185 -95 21 -26 -17 -30 -109 -12 -47 9 -126 23 -176 32 -49 8 -126 22 -170 31 -60 11 -131 14 -285 12 l-205 -3 0 -55 0 -55 -68 -3 c-84 -4 -94 -18 -46 -68 l34 -35 -24 -20 c-18 -15 -36 -18 -82 -17 -73 4 -97 -13 -59 -43 14 -11 37 -22 53 -26 57 -12 41 -47 -29 -64 -68 -17 -55 -48 28 -63 36 -7 52 -24 40 -43 -13 -20 -87 -52 -150 -65 -35 -7 -64 -17 -65 -23 -3 -14 77 -33 139 -34 67 -1 86 -20 48 -50 -15 -12 -37 -21 -51 -21 -51 0 -37 -53 17 -64 17 -3 30 -12 30 -19 0 -21 -44 -57 -84 -68 -66 -18 -27 -29 104 -29 131 0 169 -11 111 -31 -50 -18 -35 -41 38 -58 56 -12 79 -35 83 -80 l3 -36 90 0 c101 0 120 -6 105 -35 -5 -10 -10 -26 -10 -35 0 -12 4 -14 19 -5 27 14 94 13 109 -2 20 -20 13 -78 -22 -183 -87 -257 -150 -357 -291 -461 -40 -30 -107 -64 -125 -64 -6 0 -34 -11 -63 -25 -28 -14 -68 -30 -87 -34 -41 -10 -110 -30 -235 -67 -107 -32 -291 -40 -338 -15 -23 12 -35 12 -84 1 -39 -9 -116 -13 -233 -12 -162 1 -176 3 -188 21 -13 18 -16 19 -60 5 -64 -19 -79 -18 -87 7 -6 18 -12 20 -38 14 -18 -3 -54 -9 -80 -12 -41 -4 -52 -2 -69 17 -16 17 -27 21 -52 15 -55 -12 -59 -11 -68 22 -4 18 -18 39 -30 48 -28 19 -94 19 -132 0 -56 -29 -63 -9 -14 42 52 54 27 54 -195 4 -54 -12 -59 9 -11 51 67 58 81 73 93 96 11 20 9 23 -14 32 l-25 10 30 48 c16 27 30 57 30 67 0 18 -10 18 -67 0 -34 -11 -29 13 16 78 42 60 39 72 -18 61 -37 -8 -45 7 -24 45 28 47 10 56 -73 35 -102 -25 -226 -79 -308 -134 -106 -72 -285 -265 -351 -380 -27 -47 -27 -210 0 -299 l18 -60 -90 -95 c-50 -51 -100 -114 -112 -139 -23 -48 -49 -66 -63 -45 -14 23 -9 137 7 169 36 68 -12 59 -213 -39 -73 -36 -106 -59 -148 -105 -29 -33 -59 -72 -66 -88 -19 -43 -51 -39 -79 11 -13 22 -28 40 -35 40 -27 0 -39 -76 -26 -164 15 -99 15 -173 2 -181 -27 -17 -260 136 -260 171 0 26 -19 23 -47 -6 -28 -31 -63 -40 -63 -17 1 20 27 159 40 210 19 72 3 77 -61 22 -66 -57 -138 -105 -156 -105 -28 0 -12 40 25 65 63 41 85 83 122 222 17 68 32 253 25 323 -6 61 -13 94 -50 238 -8 32 -15 74 -15 93 0 51 -11 62 -45 49 -34 -13 -55 -7 -55 15 0 9 23 48 51 88 l51 72 -5 85 c-3 61 -12 104 -32 153 -27 68 -27 69 -10 110 9 23 21 49 26 57 4 8 18 35 31 59 29 55 99 131 121 131 15 0 17 -16 17 -153 0 -85 3 -157 7 -160 9 -10 156 134 216 210 56 72 66 116 27 121 -14 2 -29 8 -34 12 -12 12 43 94 133 198 40 45 69 87 66 92 -3 5 -21 6 -40 3 -39 -6 -45 6 -22 48 23 45 42 65 117 123 41 32 91 74 110 92 19 18 51 47 71 63 19 17 44 49 54 73 24 57 83 118 112 118 21 0 23 -5 23 -47 1 -75 56 -123 142 -123 16 0 38 -5 49 -11 19 -10 20 -12 4 -29 -16 -17 -15 -19 3 -29 11 -6 60 -17 108 -26 211 -36 228 -46 179 -111 -32 -42 -26 -53 18 -35 18 7 55 19 83 28 47 14 54 14 78 -2 30 -20 32 -34 11 -74 -8 -16 -11 -31 -8 -35 9 -8 68 38 125 97 41 42 51 48 76 43 25 -6 30 -3 45 29 9 20 17 43 17 53 0 25 39 124 58 145 17 19 45 15 73 -9 23 -20 36 -18 77 15 57 45 79 48 94 14 7 -15 13 -30 14 -32 2 -2 31 15 66 38 35 22 69 41 77 41 23 0 51 -31 51 -56 0 -13 4 -26 10 -29 14 -8 60 18 94 54 33 35 57 38 109 16 55 -23 193 -20 234 5 17 10 37 28 43 39 9 17 6 22 -16 34 -24 12 -24 14 -8 28 9 8 35 19 58 24 59 15 63 65 10 118 -32 33 -26 54 18 62 43 8 125 -19 256 -84 122 -59 227 -91 304 -91 46 0 62 5 88 26 41 35 36 60 -17 99 -44 32 -53 49 -28 59 29 11 16 53 -31 100 -25 25 -51 46 -57 46 -7 0 -36 20 -64 45 -85 74 -96 127 -80 385 3 58 7 106 7 108 1 7 17 -1 35 -16z m1834 -1184 c104 -48 116 -56 119 -73 8 -35 -14 -42 -138 -43 -87 -1 -127 -5 -149 -16 -17 -9 -37 -16 -46 -16 -30 0 -161 -67 -241 -123 -81 -57 -129 -82 -175 -91 -18 -4 -33 -18 -46 -43 -21 -41 -61 -55 -89 -32 -33 28 -84 131 -85 172 -1 61 -7 74 -34 81 -35 9 -35 53 0 66 14 5 28 18 32 27 13 39 46 63 84 63 20 0 42 6 48 14 9 11 36 14 99 14 50 -1 100 5 117 12 44 19 174 29 314 23 112 -4 131 -8 190 -35z m-813 -460 c34 -24 56 -49 76 -90 34 -67 78 -108 118 -108 42 0 117 -35 125 -59 9 -30 -12 -61 -53 -78 -20 -8 -47 -24 -61 -34 -31 -25 -57 -24 -64 1 -3 13 -14 20 -29 20 -15 0 -29 10 -40 30 -10 17 -25 30 -37 30 -37 0 -51 12 -51 41 0 22 -6 32 -25 39 -23 9 -25 14 -19 44 5 28 2 37 -15 48 -18 11 -21 23 -21 74 0 33 3 64 7 67 14 14 42 6 89 -25z m780 -80 c41 -30 52 -33 109 -32 47 1 74 8 100 24 49 31 61 16 35 -43 -25 -57 -91 -114 -147 -129 -24 -6 -46 -14 -49 -19 -3 -5 -20 -9 -38 -9 -43 0 -52 -12 -66 -90 -33 -181 -64 -263 -144 -374 -50 -70 -216 -237 -264 -266 -32 -20 -62 -26 -62 -14 0 4 42 51 94 104 95 99 216 250 216 269 0 6 4 11 8 11 8 0 32 55 65 150 9 25 18 81 19 125 3 73 1 80 -17 82 -84 13 -184 61 -229 110 -44 47 -11 59 54 18 85 -54 225 -5 245 85 4 17 11 30 16 30 4 0 29 -15 55 -32z m-2906 -1455 c14 -9 70 -58 126 -109 77 -71 103 -102 112 -132 18 -58 15 -88 -11 -118 -21 -24 -32 -27 -122 -34 -55 -4 -112 -13 -127 -20 -24 -11 -29 -10 -63 21 -88 79 -95 88 -95 115 0 15 -7 51 -16 79 -21 66 -13 99 32 142 32 30 104 70 129 72 6 1 22 -7 35 -16z m-1000 -151 c0 -16 7 -37 15 -48 8 -10 15 -25 15 -33 0 -7 14 -34 32 -60 73 -107 86 -130 117 -206 56 -137 71 -165 179 -334 106 -167 123 -188 177 -213 16 -8 66 -32 110 -53 128 -60 181 -100 325 -244 175 -176 161 -171 460 -171 199 0 240 -3 355 -25 136 -26 235 -30 385 -15 111 11 236 -11 275 -48 22 -20 26 -31 22 -59 -3 -18 -14 -44 -25 -58 -45 -57 -215 -185 -246 -185 -22 0 -28 17 -16 41 6 11 9 27 6 36 -5 12 -13 9 -44 -15 -71 -56 -122 -51 -122 12 0 33 -23 56 -35 36 -4 -6 -16 -10 -27 -10 -18 0 -20 4 -15 40 3 22 1 43 -4 46 -6 3 -38 -11 -72 -31 -81 -48 -154 -58 -187 -25 -22 22 -24 59 -5 118 5 14 3 22 -4 22 -11 0 -31 -19 -90 -85 -80 -92 -156 -113 -211 -60 -24 23 -37 27 -80 26 -27 0 -63 -7 -78 -14 -33 -17 -52 -12 -52 15 0 19 -4 20 -37 12 -21 -4 -71 -9 -112 -10 -40 -1 -94 -5 -119 -9 -38 -6 -48 -4 -59 11 -14 19 -81 32 -173 33 -57 1 -100 21 -100 46 0 31 -50 55 -117 55 -80 0 -105 12 -97 45 6 25 5 25 -59 25 -91 0 -127 9 -127 31 0 54 -131 11 -293 -96 -33 -23 -38 -24 -44 -9 -9 25 22 74 98 154 38 39 69 76 69 81 0 25 -81 21 -210 -10 -25 -6 -60 -14 -79 -18 -32 -6 -33 -5 -22 16 15 28 108 100 194 152 37 22 67 44 67 49 0 24 -206 -6 -268 -39 -11 -6 -30 -11 -41 -11 -56 0 7 60 127 121 48 24 89 46 92 49 3 3 16 11 30 17 l25 12 -24 0 c-24 1 -61 -4 -237 -34 -237 -39 -244 -4 -19 100 95 44 99 47 80 62 -58 44 -121 50 -187 17 -67 -34 -77 -4 -16 49 46 40 45 57 -1 37 -17 -7 -54 -13 -83 -14 -42 -1 -53 2 -56 16 -5 24 59 90 137 141 69 46 98 73 88 84 -4 3 -42 0 -87 -7 -64 -10 -83 -10 -95 0 -23 19 -18 37 23 79 56 58 100 81 154 81 41 0 55 6 100 43 29 23 86 64 127 92 40 27 81 60 90 72 9 12 29 40 45 62 35 48 56 53 56 13z m1960 -162 c36 -5 99 -15 140 -21 86 -13 140 -31 260 -86 47 -21 121 -47 165 -57 184 -42 277 -97 440 -261 174 -175 215 -250 215 -391 0 -56 5 -95 15 -114 24 -46 47 -214 48 -355 l2 -130 -38 -63 c-58 -95 -70 -130 -68 -199 1 -55 -1 -63 -17 -63 -11 0 -33 20 -51 46 -18 25 -43 54 -54 65 -12 11 -40 50 -62 86 -32 54 -59 82 -135 139 -133 101 -142 115 -271 389 -11 22 -22 41 -62 102 -15 24 -27 45 -27 47 0 3 -13 24 -29 48 -16 24 -37 59 -48 78 -70 128 -184 273 -286 365 -104 94 -161 165 -205 256 -40 82 -42 129 -8 129 6 0 40 -5 76 -10z m-4685 -40 c14 -26 18 -28 42 -19 37 14 51 6 73 -46 21 -48 41 -56 70 -30 10 9 30 17 46 18 26 2 29 -1 32 -31 4 -40 24 -50 57 -28 23 15 28 15 55 1 35 -18 46 -53 31 -96 -20 -59 -12 -62 67 -24 29 14 63 25 77 25 37 0 85 -26 120 -65 l30 -34 75 60 c67 55 75 59 87 43 7 -9 14 -20 15 -23 2 -4 39 -35 83 -69 44 -34 95 -74 113 -89 29 -23 42 -26 95 -25 35 1 64 -3 68 -9 3 -6 2 -27 -4 -45 -15 -50 -60 -74 -138 -74 -157 -1 -61 -49 114 -57 115 -6 132 -16 75 -45 -108 -55 -245 -61 -366 -18 -79 28 -90 20 -62 -43 21 -48 49 -74 132 -121 50 -28 67 -51 78 -101 5 -25 11 -30 35 -30 30 0 30 0 33 65 4 94 25 102 100 37 28 -23 75 -51 104 -61 169 -58 183 -65 240 -126 34 -35 68 -62 85 -65 107 -22 176 -62 171 -100 -3 -17 -10 -20 -48 -19 -25 0 -60 4 -77 9 -29 7 -33 5 -33 -13 0 -24 19 -41 67 -57 25 -9 39 -20 41 -34 4 -27 -30 -35 -113 -26 -55 6 -65 4 -65 -9 0 -9 12 -18 28 -21 15 -3 55 -12 89 -20 34 -8 73 -15 87 -15 84 0 303 -93 382 -163 24 -21 90 -109 148 -195 57 -86 122 -177 144 -202 34 -38 43 -43 59 -34 35 21 26 148 -14 209 -7 11 -13 47 -13 84 0 41 -5 70 -14 80 -7 9 -17 26 -20 39 -11 33 18 28 44 -8 28 -39 36 -38 45 8 10 56 70 174 114 223 63 72 205 133 218 93 2 -6 -17 -36 -42 -66 -61 -75 -60 -117 2 -68 24 19 27 19 44 4 10 -9 21 -29 24 -46 6 -25 118 -185 171 -244 20 -22 117 -104 199 -168 95 -75 159 -148 183 -211 52 -131 62 -152 123 -238 38 -54 85 -106 117 -130 88 -66 54 -105 -94 -106 -39 -1 -73 -3 -76 -6 -3 -3 36 -48 87 -99 86 -88 143 -127 200 -138 11 -2 18 -8 15 -13 -6 -12 -149 -13 -210 0 l-45 8 65 -56 c67 -59 142 -161 138 -187 -2 -10 -17 -16 -44 -18 -45 -3 -145 37 -223 90 -133 91 -166 110 -214 127 -96 34 -152 51 -167 51 -8 1 -37 12 -65 25 -61 30 -63 30 -92 3 -21 -20 -26 -20 -64 -9 -60 18 -111 53 -155 105 -38 46 -54 50 -54 16 0 -11 -9 -24 -21 -30 -16 -9 -29 -6 -67 16 -120 70 -195 141 -211 201 -8 32 -47 45 -57 19 -17 -43 -71 16 -119 129 -30 70 -49 80 -89 50 -11 -8 -34 -15 -52 -15 -26 0 -39 8 -66 43 -19 23 -43 61 -53 85 -10 23 -21 41 -24 39 -57 -30 -58 -30 -104 -8 -55 27 -93 59 -101 88 -12 39 -32 47 -72 28 -51 -24 -96 -13 -144 35 -21 21 -49 62 -61 90 -24 56 -43 64 -54 23 -9 -40 -72 -169 -91 -187 -23 -24 -47 -21 -34 3 5 11 10 81 10 158 0 154 -14 204 -66 239 -15 11 -43 35 -62 54 -31 31 -39 34 -86 32 -44 -2 -56 2 -89 29 -20 16 -53 55 -73 86 -41 61 -62 74 -76 50 -24 -44 -143 -3 -212 73 -20 22 -40 40 -45 40 -5 0 -19 -12 -30 -26 -15 -19 -26 -24 -41 -19 -32 10 -86 66 -111 113 -26 51 -47 52 -64 2 -19 -54 -43 -42 -108 55 -23 33 -49 89 -59 124 -10 36 -22 69 -27 74 -5 5 -19 -13 -34 -45 -23 -47 -67 -93 -67 -69 0 6 4 12 9 15 4 3 11 25 14 48 4 24 11 63 16 88 13 57 13 254 1 300 -5 19 -14 51 -19 70 -6 19 -18 64 -28 100 -19 69 -29 90 -43 90 -4 0 -44 -33 -88 -72 -43 -40 -94 -81 -113 -90 -68 -33 -170 -70 -177 -64 -2 2 17 24 41 48 50 48 137 170 137 193 0 7 5 17 10 20 6 3 10 11 10 16 0 11 -40 -15 -110 -72 -25 -20 -52 -39 -60 -43 -8 -3 -35 -17 -59 -31 -44 -25 -111 -34 -111 -15 0 6 4 10 8 10 26 0 104 68 151 132 30 40 78 102 106 138 29 36 61 85 73 110 29 62 101 129 139 130 7 0 19 -13 28 -30z m3211 -12 c23 -11 26 -16 21 -52 -4 -30 -1 -46 14 -64 10 -14 19 -30 19 -36 0 -6 14 -24 30 -39 19 -18 30 -39 30 -55 0 -19 9 -32 30 -44 16 -9 32 -28 36 -41 3 -15 15 -28 28 -31 23 -6 51 -50 61 -98 3 -15 14 -29 24 -33 11 -3 37 -18 58 -32 21 -15 54 -29 73 -32 32 -6 35 -10 35 -40 0 -25 6 -36 20 -42 34 -13 104 -10 136 6 16 9 34 13 40 9 6 -3 23 6 39 21 18 17 36 25 51 23 21 -3 25 -10 29 -58 4 -47 8 -55 27 -58 12 -2 35 4 52 12 16 9 49 16 73 16 37 0 47 5 69 33 15 18 47 44 72 57 45 24 46 24 94 7 29 -10 61 -15 78 -11 22 4 38 0 58 -16 35 -28 34 -52 -3 -84 -37 -31 -89 -42 -131 -27 -60 21 -106 14 -155 -24 -29 -21 -62 -37 -91 -41 -72 -11 -313 1 -360 18 -55 20 -176 100 -233 155 -26 25 -57 50 -71 57 -13 6 -33 26 -44 43 -13 20 -35 37 -60 45 -26 9 -45 23 -55 42 -8 16 -29 42 -47 58 -32 30 -113 176 -113 206 0 9 -9 31 -20 47 -27 41 -25 59 11 89 35 30 38 30 75 14z m899 -115 c66 -16 97 -14 168 13 43 17 50 17 73 4 32 -18 47 -46 70 -129 25 -88 45 -111 98 -111 31 0 51 7 72 25 42 36 63 31 115 -28 35 -39 59 -57 100 -70 80 -28 94 -40 128 -111 16 -35 46 -90 66 -121 20 -31 49 -85 65 -119 15 -35 42 -83 59 -106 37 -52 39 -74 7 -95 -32 -21 -66 -11 -110 31 -32 32 -45 59 -61 138 -12 59 -92 105 -240 139 -38 9 -83 18 -99 19 -16 2 -34 11 -40 20 -8 14 -5 23 17 46 15 15 27 33 27 39 0 19 -30 36 -78 44 -26 5 -78 18 -117 29 -38 12 -108 25 -155 30 -47 6 -98 14 -113 20 -26 9 -84 50 -130 91 -9 9 -42 29 -73 45 -54 28 -114 78 -114 95 0 19 48 61 85 74 43 16 81 13 180 -12z m1902 -494 c102 -56 335 -215 425 -289 148 -122 201 -204 219 -337 16 -124 -2 -241 -52 -349 -31 -66 -37 -71 -262 -204 -97 -58 -266 -13 -328 86 -26 43 -23 104 13 224 35 116 40 167 28 290 -6 58 -17 170 -25 250 -7 80 -18 159 -24 175 -6 17 -22 63 -35 103 -29 81 -24 87 41 51z"/> <path d="M2855 8633 c-36 -19 -77 -54 -168 -141 -68 -65 -147 -124 -243 -182 -29 -17 -55 -38 -58 -46 -5 -14 -1 -16 31 -11 95 15 151 19 156 10 4 -5 -23 -31 -60 -58 -74 -55 -97 -77 -124 -120 -26 -42 -24 -48 14 -41 77 16 107 18 107 6 0 -7 -36 -47 -80 -90 -59 -58 -80 -85 -80 -104 0 -32 6 -32 69 1 32 16 55 23 61 17 6 -6 -4 -37 -25 -82 -49 -101 -46 -130 9 -89 68 51 95 39 48 -21 -28 -36 -152 -238 -152 -248 0 -3 -22 -37 -49 -77 -54 -80 -108 -138 -193 -204 -58 -46 -85 -82 -51 -68 148 60 191 58 160 -8 -33 -70 -60 -227 -38 -227 4 0 29 16 54 35 25 19 48 35 51 35 11 0 6 -74 -8 -124 -8 -28 -22 -87 -32 -131 -37 -178 -66 -281 -94 -338 -28 -56 -37 -87 -25 -87 32 0 141 159 192 280 50 117 61 164 77 321 17 160 21 179 42 179 15 0 94 -159 95 -193 0 -12 4 -31 9 -42 7 -19 9 -18 19 8 6 15 16 83 22 150 13 141 36 243 73 315 42 83 128 204 138 194 5 -5 4 -37 -2 -77 -11 -70 2 -219 21 -231 13 -8 28 37 42 130 14 87 30 126 51 126 7 0 30 -25 51 -55 20 -30 41 -55 46 -55 5 0 9 19 10 43 0 23 4 50 8 60 6 17 8 17 35 -4 23 -18 30 -20 37 -8 12 20 11 37 -7 119 -18 77 -14 109 32 307 15 67 18 131 6 149 -4 7 -16 13 -27 16 -23 4 -23 13 -2 103 13 57 22 78 65 150 33 55 34 65 6 75 l-26 10 41 45 c46 50 52 81 24 142 -20 43 -31 53 -49 46 -7 -2 -19 8 -28 25 -13 26 -21 30 -75 35 -34 3 -80 15 -104 26 -51 25 -62 25 -102 4z"/> <path d="M5362 8154 c-57 -16 -118 -50 -142 -79 -21 -26 -199 -159 -235 -176 -42 -20 -38 -32 15 -46 25 -7 88 -24 140 -39 79 -22 110 -25 185 -22 78 4 98 9 153 37 34 18 64 37 67 42 18 28 103 71 153 76 29 3 56 12 59 18 2 7 -26 45 -64 83 -57 59 -78 74 -131 92 -86 28 -137 32 -200 14z m128 -81 c39 -27 49 -45 50 -90 0 -32 -5 -45 -19 -53 -27 -14 -34 -13 -27 6 15 40 -18 70 -44 40 -6 -8 -18 -12 -27 -9 -14 6 -14 17 2 56 7 17 3 19 -40 15 -56 -4 -67 10 -28 34 36 22 102 23 133 1z"/> <path d="M5690 7138 c-14 -6 -82 -38 -153 -71 -115 -55 -161 -67 -129 -35 17 17 15 38 -4 38 -9 0 -33 -13 -53 -28 -90 -70 -242 -152 -282 -152 -26 0 -34 20 -10 27 12 3 21 12 21 20 0 18 -16 16 -154 -21 -103 -27 -240 -35 -289 -17 -43 17 -189 -40 -245 -94 -22 -22 -22 -23 -2 -28 11 -3 20 -9 20 -14 0 -4 -29 -39 -65 -76 -53 -55 -65 -75 -65 -101 0 -28 -11 -41 -85 -104 -73 -62 -85 -77 -85 -104 0 -33 -35 -73 -152 -171 -66 -56 -129 -147 -183 -262 -21 -44 -44 -92 -51 -107 -8 -14 -14 -36 -14 -47 0 -18 4 -20 25 -15 38 9 40 -15 10 -98 -14 -40 -35 -113 -46 -163 -34 -155 -16 -174 40 -41 35 82 52 105 75 106 5 0 6 -38 3 -89 -9 -122 17 -194 44 -123 53 139 164 305 259 386 29 25 57 43 62 40 4 -3 8 -25 8 -49 0 -90 33 -67 148 103 91 135 187 236 333 349 112 87 136 109 125 120 -8 8 -37 -8 -181 -102 -129 -84 -138 -89 -200 -111 -61 -20 -76 -8 -51 38 26 50 41 74 54 90 15 18 6 28 -25 28 -37 0 -28 24 35 92 32 35 66 80 77 101 36 70 92 119 210 183 22 11 56 31 75 42 135 80 315 135 515 157 116 13 232 45 334 92 62 29 161 118 161 145 0 19 -15 24 -25 8 -7 -11 -48 -14 -58 -4 -3 4 0 16 8 28 30 42 15 56 -35 34z"/> <path d="M6000 7010 c-10 -10 -37 -54 -58 -97 -114 -226 -83 -196 -316 -320 -85 -46 -88 -48 -56 -51 18 -2 53 1 76 7 47 12 104 15 104 5 0 -4 -18 -24 -40 -46 -40 -40 -52 -64 -27 -56 148 54 144 53 166 34 17 -15 30 -17 79 -11 69 8 90 -6 52 -35 -33 -25 -18 -38 35 -32 58 6 58 -7 -3 -49 -27 -19 -76 -55 -110 -80 -47 -36 -78 -50 -134 -64 -40 -9 -99 -26 -130 -37 -49 -17 -58 -24 -58 -44 0 -25 9 -29 66 -25 50 4 47 -12 -12 -58 -102 -79 -88 -110 23 -49 32 17 69 39 83 48 64 43 162 77 257 89 39 5 79 14 91 20 27 15 52 14 52 -1 0 -7 -21 -32 -45 -56 -71 -68 -57 -102 22 -55 57 34 130 63 137 55 4 -3 6 -12 6 -21 1 -37 13 -41 71 -25 47 13 62 14 109 2 49 -11 55 -16 58 -40 5 -42 51 -38 96 7 28 28 43 35 74 35 43 0 62 -14 62 -46 0 -39 11 -54 40 -54 29 0 60 27 60 52 0 9 8 26 19 39 17 21 21 22 46 11 15 -7 54 -15 87 -19 56 -6 61 -9 84 -45 13 -21 27 -38 30 -38 12 0 64 35 64 43 0 5 24 5 54 2 50 -7 57 -5 80 18 52 53 22 92 -80 105 -55 6 -59 9 -62 34 -2 18 -14 34 -33 45 -16 10 -29 22 -29 28 0 6 23 28 50 48 51 38 59 54 39 74 -15 15 -85 -10 -120 -43 -25 -24 -32 -25 -84 -19 -47 6 -58 11 -65 31 -7 19 -17 24 -42 24 -42 0 -58 -11 -77 -51 -14 -28 -25 -35 -72 -48 -31 -8 -68 -11 -83 -7 -30 7 -46 34 -27 45 6 4 13 21 14 37 2 28 1 29 -42 28 -38 -1 -49 -6 -86 -46 -40 -43 -45 -45 -115 -52 -66 -7 -76 -5 -104 15 l-30 23 -61 -23 c-88 -34 -105 -36 -105 -17 0 19 101 156 144 195 34 31 33 47 -2 54 -16 3 -39 14 -52 25 l-24 19 96 47 c103 50 173 112 161 142 -8 22 -67 12 -133 -21 -56 -28 -90 -32 -90 -10 0 8 11 40 25 72 14 31 23 63 21 70 -3 8 -22 13 -46 13 -37 0 -41 2 -38 23 3 20 -1 22 -47 22 -57 0 -66 14 -41 64 9 16 16 37 16 46 0 22 -46 19 -70 -5z"/> <path d="M6335 5850 c-21 -23 -13 -50 14 -50 12 0 28 -11 37 -25 14 -21 24 -25 63 -25 26 0 56 7 69 16 28 19 52 12 52 -16 0 -31 26 -35 86 -15 32 11 61 15 76 10 13 -4 46 -11 73 -15 28 -4 65 -14 83 -21 30 -13 37 -12 72 8 34 18 45 20 74 11 27 -9 39 -8 51 2 40 33 -13 71 -103 71 -160 2 -257 11 -275 27 -12 11 -56 20 -140 28 -175 19 -210 18 -232 -6z"/> </g> </svg> 